<svg width="16" height="16" viewBox="0 0 16 16" fill="none" xmlns="http://www.w3.org/2000/svg">
<path fill-rule="evenodd" clip-rule="evenodd" d="M5.00257 0.75483C5.19611 0.64424 5.43211 0.637689 5.63148 0.737374L10.6457 3.24448L15.0026 0.75483C15.2089 0.636924 15.4624 0.637771 15.668 0.757052C15.8735 0.876334 16 1.09601 16 1.33366V12.0003C16 12.2396 15.8718 12.4605 15.6641 12.5792L10.9974 15.2458C10.8039 15.3564 10.5679 15.363 10.3685 15.2633L5.35431 12.7562L0.997426 15.2458C0.791091 15.3637 0.537592 15.3629 0.332049 15.2436C0.126506 15.1243 0 14.9046 0 14.667V4.00033C0 3.76109 0.128191 3.54019 0.335907 3.4215L5.00257 0.75483ZM5.35431 2.0895L1.33333 4.38721V13.5182L5.00257 11.4215C5.19611 11.3109 5.43211 11.3044 5.63148 11.404L10.6457 13.9111L14.6667 11.6134V2.48245L10.9974 4.57915C10.8039 4.68974 10.5679 4.6963 10.3685 4.59661L5.35431 2.0895Z" fill="#233265"/>
<path fill-rule="evenodd" clip-rule="evenodd" d="M5.33268 0.666992C5.70087 0.666992 5.99935 0.965469 5.99935 1.33366V12.0003C5.99935 12.3685 5.70087 12.667 5.33268 12.667C4.96449 12.667 4.66602 12.3685 4.66602 12.0003V1.33366C4.66602 0.965469 4.96449 0.666992 5.33268 0.666992Z" fill="#233265"/>
<path fill-rule="evenodd" clip-rule="evenodd" d="M10.6667 3.33301C11.0349 3.33301 11.3333 3.63148 11.3333 3.99967V14.6663C11.3333 15.0345 11.0349 15.333 10.6667 15.333C10.2985 15.333 10 15.0345 10 14.6663V3.99967C10 3.63148 10.2985 3.33301 10.6667 3.33301Z" fill="#233265"/>
</svg>
