<svg width="115" height="18" viewBox="0 0 115 18" fill="none" xmlns="http://www.w3.org/2000/svg">
<path d="M45.3565 12.8455H44.5707C44.2335 12.8267 43.9146 12.6858 43.6736 12.4492L37.832 6.74667L43.3954 6.45459L45.746 12.2962C45.8016 12.3935 46.0102 12.8316 45.4191 12.8664" fill="#3D933C"/>
<path d="M47.0882 1.21118V1.25291L43.3329 6.43383L37.7695 6.7259L45.1828 0.613116C45.401 0.436204 45.6677 0.329527 45.9477 0.307129H46.5736C47.4916 0.348854 47.1925 1.00255 47.0743 1.20423" fill="#3D933C"/>
<path d="M10.94 11.8243C11.086 12.0677 11.0512 12.2138 10.8426 12.2624L8.24172 12.8049C8.14452 12.8128 8.04684 12.8128 7.94964 12.8049C7.85362 12.7995 7.76103 12.7673 7.68236 12.712C7.6037 12.6567 7.5421 12.5805 7.50457 12.4919C7.36398 12.2087 7.2499 11.913 7.16381 11.6087C6.74195 12.035 6.24122 12.3751 5.68951 12.6102C5.13363 12.8164 4.54371 12.9156 3.95094 12.9022C3.35051 12.9122 2.75289 12.8181 2.18456 12.6241C1.69931 12.4699 1.26133 12.1947 0.911935 11.8243C0.730306 11.6307 0.569479 11.4186 0.432092 11.1915C0.309626 10.9727 0.216119 10.7389 0.153922 10.4961C0.0797452 10.1761 0.0332122 9.85039 0.014837 9.52247C0.014837 9.14694 0.014837 8.68101 0.014837 8.13162V0.954834C-0.00888223 0.841854 -0.00410233 0.724747 0.0287455 0.614076C0.110715 0.542985 0.212814 0.499228 0.320824 0.488899L3.29029 0.0507812C3.49892 0.0507812 3.63105 0.0507812 3.67973 0.0507812C3.72841 0.0507812 3.75622 0.210729 3.75622 0.405448V8.40979C3.72181 8.88637 3.80541 9.36408 3.99962 9.80064C4.10715 9.9502 4.2531 10.0679 4.42203 10.1414C4.59096 10.2148 4.77659 10.2413 4.95931 10.2179C5.63353 10.1937 6.27296 9.91255 6.74655 9.43207V0.933971C6.73397 0.8181 6.75071 0.700925 6.79523 0.593213C6.8772 0.522122 6.9793 0.478365 7.08731 0.468036L10.0081 0.0507812C10.2376 0.0507812 10.3697 0.0507812 10.4114 0.0507812C10.4532 0.0507812 10.474 0.203775 10.474 0.419357V9.3208C10.463 9.81699 10.5002 10.3131 10.5853 10.8021C10.6529 11.165 10.7724 11.5163 10.94 11.8452" fill="#4BC999"/>
<path d="M22.0668 8.99993C22.0809 9.5802 21.9694 10.1567 21.74 10.6898C21.5365 11.1639 21.23 11.5867 20.8429 11.9277C20.4232 12.2732 19.9384 12.531 19.4172 12.6857C18.8337 12.864 18.2262 12.9508 17.6161 12.943C16.7269 12.9523 15.8404 12.8424 14.9804 12.6161C14.2539 12.4293 13.5532 12.1537 12.8941 11.7955C12.7133 11.6982 12.6299 11.6078 12.6299 11.5243C12.6366 11.3921 12.66 11.2613 12.6994 11.1349L13.3114 9.11816C13.3462 8.99298 13.4088 8.91648 13.4992 8.90257C13.6062 8.88784 13.715 8.91256 13.8052 8.97212C14.0757 9.11558 14.3544 9.24329 14.6397 9.3546C14.9456 9.47978 15.2655 9.598 15.5785 9.70927C15.8831 9.81931 16.1943 9.90989 16.5104 9.98048C16.7731 10.0393 17.041 10.0719 17.3101 10.0778C17.6223 10.0966 17.9322 10.0136 18.1933 9.8414C18.2978 9.75903 18.3813 9.65306 18.4369 9.53217C18.4925 9.41128 18.5186 9.27892 18.5132 9.14597C18.5129 9.00147 18.4724 8.85989 18.3963 8.73708C18.3201 8.61427 18.2113 8.51506 18.082 8.45055C17.6081 8.21507 17.1204 8.00839 16.6216 7.83162C15.9262 7.55345 15.3838 7.3031 14.9665 7.09447C14.5669 6.88991 14.2029 6.62221 13.8886 6.30168C13.6183 6.02247 13.4036 5.69444 13.2558 5.33504C13.0797 4.89297 12.9945 4.41992 13.0054 3.94419C12.9984 3.39629 13.1155 2.8539 13.3479 2.3577C13.5804 1.8615 13.9221 1.42435 14.3476 1.07904C14.7876 0.713798 15.2959 0.439595 15.8427 0.272348C16.4463 0.0864254 17.075 -0.00506053 17.7065 0.00113204C18.4549 -0.0113809 19.2015 0.0798925 19.9249 0.272348C20.4934 0.437713 21.0398 0.671216 21.5522 0.967773C21.6843 1.05122 21.7539 1.12077 21.7539 1.19031C21.7434 1.29099 21.7176 1.38949 21.6774 1.48239L20.9194 3.33222C20.8707 3.46435 20.815 3.54085 20.7594 3.55475C20.6587 3.55938 20.5591 3.53265 20.4743 3.47826C20.0501 3.29745 19.612 3.13055 19.153 2.97755C18.7486 2.84689 18.3261 2.78117 17.9012 2.78283C17.565 2.7707 17.2316 2.84746 16.9346 3.00537C16.8122 3.074 16.7116 3.17552 16.644 3.29843C16.5764 3.42134 16.5445 3.56073 16.5521 3.70079C16.542 3.84125 16.5727 3.98162 16.6406 4.10501C16.7085 4.22839 16.8105 4.32953 16.9346 4.39622C17.337 4.60155 17.7502 4.78495 18.1724 4.9456C18.9861 5.27245 19.6259 5.55758 20.0848 5.79402C20.5227 6.01858 20.9199 6.31474 21.2601 6.67026C21.8202 7.31324 22.1094 8.14826 22.0668 8.99993Z" fill="#4BC999"/>
<path d="M34.2576 6.872C34.2576 7.10149 34.2158 7.24058 34.1393 7.28926C34.0087 7.34882 33.8654 7.3751 33.7221 7.36576H27.053C27.0279 8.1141 27.2558 8.84906 27.6997 9.45203C27.9195 9.67732 28.1859 9.85192 28.4802 9.96362C28.7744 10.0753 29.0896 10.1215 29.4035 10.0988C29.9445 10.108 30.4838 10.0353 31.003 9.88319C31.4853 9.72469 31.9511 9.51974 32.3938 9.27122C32.4392 9.23278 32.493 9.20566 32.5509 9.19208C32.6087 9.1785 32.669 9.17885 32.7267 9.19311C32.7844 9.20737 32.8379 9.23512 32.8828 9.27409C32.9277 9.31306 32.9627 9.36213 32.9849 9.41726L33.8125 11.0793C33.8694 11.1545 33.8947 11.2489 33.883 11.3424C33.8713 11.4359 33.8235 11.5212 33.7499 11.58C33.5445 11.7301 33.3283 11.8649 33.1032 11.9834C32.4686 12.3197 31.793 12.5722 31.0934 12.7344C30.4711 12.8807 29.8341 12.9553 29.1949 12.957C27.2755 12.957 25.836 12.4076 24.8763 11.3088C23.9166 10.21 23.4391 8.63375 23.4437 6.57992C23.4357 5.68191 23.567 4.78808 23.8331 3.93035C24.0641 3.16748 24.4447 2.45825 24.9528 1.84408C25.439 1.27633 26.0445 0.822804 26.7261 0.515817C27.4675 0.185838 28.2722 0.0220618 29.0836 0.0359739C30.8546 0.0359739 32.1597 0.613177 32.9988 1.76758C33.8403 2.92894 34.2576 4.62578 34.2576 6.872ZM30.1476 3.01239C30.0033 2.83473 29.8173 2.69545 29.6062 2.60689C29.3951 2.51833 29.1655 2.48324 28.9376 2.50473C28.7014 2.48574 28.4642 2.52313 28.2453 2.61381C28.0265 2.70449 27.8323 2.84587 27.6788 3.0263C27.3471 3.58795 27.1496 4.21863 27.1016 4.86918H30.5788C30.6091 4.21428 30.4626 3.5633 30.1546 2.98458" fill="#3D933C"/>
<path d="M59.5296 6.35732C59.5296 8.54096 59.1401 10.1822 58.3613 11.2809C57.9339 11.8422 57.3726 12.2872 56.7286 12.5751C56.0847 12.8631 55.3787 12.9848 54.6755 12.9291C54.2889 12.9357 53.9031 12.8913 53.5281 12.797C53.1697 12.6986 52.8224 12.5635 52.4919 12.3936V16.7609C52.505 16.8654 52.4881 16.9715 52.4432 17.0669C52.3739 17.1257 52.2896 17.1642 52.1998 17.1781L49.0982 17.6441C48.9522 17.6441 48.8548 17.6441 48.8061 17.6023C48.7437 17.4978 48.7169 17.3758 48.7296 17.2546V3.91638C48.7388 3.4485 48.6897 2.9813 48.5836 2.52553C48.4862 2.13609 48.375 1.75361 48.2428 1.37808C48.2081 1.2862 48.2081 1.18482 48.2428 1.09295C48.2428 1.03732 48.3332 0.995592 48.4515 0.960821L50.9341 0.112403C51.0435 0.0708377 51.1582 0.0450795 51.2749 0.0359058C51.407 0.0359058 51.5322 0.147174 51.6435 0.36971C51.775 0.630449 51.8821 0.902832 51.9634 1.18336C52.3679 0.803125 52.8395 0.501297 53.3542 0.293213C53.8565 0.115631 54.3862 0.0285129 54.9189 0.0359058C55.5948 -0.0102514 56.271 0.120709 56.8808 0.415852C57.4906 0.710995 58.0129 1.16011 58.396 1.71883C59.2245 3.11877 59.619 4.73306 59.5296 6.35732ZM55.8716 6.46163C55.9325 5.51219 55.7779 4.56127 55.4196 3.67993C55.3125 3.43438 55.1367 3.225 54.9134 3.07696C54.6901 2.92892 54.4288 2.84852 54.1609 2.84542C53.8886 2.84542 53.6191 2.8998 53.3681 3.00537C53.0503 3.15181 52.7571 3.34651 52.4988 3.58257V10.0778C52.9543 10.3078 53.456 10.4315 53.9662 10.4395C54.2641 10.4509 54.5603 10.3888 54.8285 10.2587C55.085 10.1123 55.2911 9.89167 55.4196 9.62582C55.6013 9.22039 55.7163 8.78831 55.7604 8.34624C55.8397 7.71193 55.8769 7.07305 55.8716 6.43382" fill="#3D933C"/>
<path d="M68.8271 0.696708C68.8652 0.729258 68.8924 0.772774 68.9048 0.821316C68.9173 0.869857 68.9144 0.921057 68.8967 0.967924C68.8707 1.05827 68.8382 1.14659 68.7993 1.23219L67.9718 3.40887C67.8883 3.61749 67.7562 3.68008 67.5754 3.60359C67.4179 3.51518 67.2554 3.43622 67.0886 3.36714C66.8657 3.28771 66.6295 3.25229 66.3931 3.26283C66.1486 3.26759 65.9092 3.3346 65.6977 3.45755C65.3756 3.66509 65.0871 3.92073 64.8423 4.21556V12.1225C64.8423 12.3173 64.8424 12.4355 64.7798 12.4633C64.6775 12.5099 64.5643 12.5268 64.4529 12.512H61.4278C61.247 12.512 61.1427 12.512 61.1079 12.4633C61.0731 12.4146 61.0592 12.3173 61.0592 12.1225V4.62586C61.0652 3.98848 60.9904 3.35291 60.8367 2.7343C60.6907 2.17101 60.5516 1.71898 60.4264 1.37822C60.3786 1.26124 60.3414 1.14022 60.3151 1.0166C60.2873 0.900699 60.3638 0.817248 60.5446 0.766251L62.916 0.133414C63.0275 0.0920231 63.1449 0.0685516 63.2637 0.0638711C63.4445 0.0638711 63.6114 0.20991 63.7783 0.515898C63.9741 0.908962 64.1279 1.32153 64.2373 1.7468L64.3625 1.60076C64.3966 1.5543 64.4363 1.51225 64.4807 1.47558C64.8533 1.06014 65.2789 0.695405 65.7464 0.390721C66.1683 0.146103 66.6498 0.0233279 67.1373 0.0360541C67.4631 0.031974 67.7866 0.0910123 68.09 0.20991C68.3734 0.306287 68.6272 0.473921 68.8271 0.696708Z" fill="#3D933C"/>
<path d="M79.7455 6.86527C79.7455 7.09476 79.7038 7.23385 79.6273 7.28253C79.4967 7.34209 79.3533 7.36837 79.2101 7.35902H72.5131C72.4901 8.10819 72.7204 8.84322 73.1668 9.4453C73.3866 9.67059 73.653 9.84518 73.9473 9.95689C74.2416 10.0686 74.5567 10.1147 74.8706 10.092C75.4143 10.0996 75.9559 10.0246 76.4771 9.86951C76.9604 9.7136 77.4264 9.50854 77.8679 9.25753C77.9132 9.2191 77.9671 9.19197 78.0249 9.17839C78.0828 9.16481 78.1431 9.16517 78.2008 9.17943C78.2585 9.19368 78.312 9.22144 78.3569 9.2604C78.4018 9.29937 78.4368 9.34844 78.459 9.40357L79.2935 11.0726C79.4048 11.2905 79.3839 11.4574 79.2309 11.5733C79.0278 11.7267 78.8113 11.8617 78.5842 11.9766C77.9466 12.3204 77.266 12.5776 76.5605 12.7416C75.935 12.8819 75.2961 12.9542 74.655 12.9572C72.7264 12.9572 71.2799 12.4055 70.3156 11.3021C69.3559 10.2033 68.8691 8.63165 68.8691 6.5871C68.8599 5.68392 68.9937 4.78498 69.2655 3.92362C69.4996 3.16063 69.8825 2.45156 70.3921 1.83735C70.8809 1.25652 71.4941 0.793056 72.1863 0.481268C72.9298 0.150293 73.737 -0.0135062 74.5507 0.00142459C76.331 0.00142459 77.643 0.580946 78.4868 1.73999C79.3306 2.89903 79.7502 4.60746 79.7455 6.86527ZM75.6147 2.99175C75.4698 2.81074 75.2819 2.66885 75.0681 2.57897C74.8544 2.48909 74.6215 2.45409 74.3908 2.47714C74.1528 2.45668 73.9135 2.49405 73.6931 2.58608C73.4727 2.67811 73.2778 2.82206 73.1251 3.00566C72.7799 3.57537 72.5749 4.21891 72.527 4.88331H76.0042C76.0383 4.22504 75.889 3.57021 75.573 2.99175" fill="#3D933C"/>
<path d="M90.5106 9.00001C90.5226 9.58079 90.4087 10.1573 90.1768 10.6899C89.969 11.1707 89.6495 11.595 89.245 11.9278C88.837 12.2713 88.3639 12.5291 87.8541 12.6858C87.2705 12.8636 86.663 12.9504 86.053 12.9431C85.1637 12.9532 84.2772 12.8433 83.4173 12.6162C82.6961 12.4397 81.9998 12.1734 81.3449 11.8234C81.1641 11.7261 81.0737 11.6357 81.0737 11.5522C81.0837 11.4198 81.1094 11.2891 81.1502 11.1628L81.7622 9.14605C81.7622 9.02087 81.8526 8.94438 81.943 8.93047C82.0501 8.91508 82.1591 8.93985 82.249 9.00001C82.5202 9.14217 82.7988 9.26985 83.0835 9.38249C83.3965 9.50767 83.7094 9.62589 84.0293 9.73716C84.3336 9.84805 84.6449 9.93866 84.9612 10.0084C85.2215 10.0675 85.4871 10.1001 85.7539 10.1057C86.0663 10.1255 86.3765 10.0425 86.6371 9.86929C86.7425 9.7877 86.8266 9.68187 86.8823 9.56079C86.938 9.43971 86.9636 9.30698 86.957 9.17387C86.9584 9.02902 86.9186 8.88677 86.8422 8.76366C86.7659 8.64055 86.6562 8.54164 86.5259 8.47844C86.0539 8.24396 85.5686 8.0373 85.0724 7.85951C84.377 7.58134 83.8346 7.33099 83.4173 7.12236C83.0338 6.93164 82.682 6.68301 82.3742 6.38521C82.1017 6.10639 81.8846 5.77837 81.7344 5.41857C81.564 4.97507 81.4814 4.50272 81.491 4.02772C81.4805 3.47998 81.5954 2.9371 81.8268 2.44054C82.0582 1.94397 82.4001 1.50686 82.8262 1.16257C83.2467 0.77225 83.7408 0.469643 84.2796 0.272425C84.8834 0.0874748 85.5119 -0.00398912 86.1434 0.00120958C86.8919 -0.0117532 87.6385 0.0795278 88.3618 0.272425C88.9329 0.436611 89.4817 0.67016 89.996 0.967851C90.1282 1.0513 90.1908 1.12084 90.1908 1.19039C90.1803 1.29107 90.1545 1.38957 90.1143 1.48247L89.3562 3.36707C89.3076 3.4992 89.2519 3.57569 89.1963 3.5896C89.1008 3.60254 89.0036 3.58554 88.9181 3.54092C88.4939 3.36011 88.0488 3.19321 87.5899 3.04022C87.1914 2.88828 86.7711 2.8014 86.3451 2.78291C86.0067 2.77086 85.671 2.84758 85.3715 3.00545C85.251 3.07561 85.1521 3.17765 85.0859 3.30034C85.0196 3.42304 84.9885 3.56163 84.9959 3.70087C84.986 3.84048 85.0161 3.98002 85.0826 4.10317C85.1491 4.22631 85.2493 4.32799 85.3715 4.3963C85.7745 4.60022 86.1877 4.78359 86.6093 4.94568C87.4299 5.27253 88.0628 5.55766 88.5217 5.7941C88.9557 6.02155 89.3502 6.31742 89.69 6.67034C90.247 7.31515 90.5357 8.14886 90.4967 9.00001" fill="#3D933C"/>
<path d="M100.977 8.99993C100.986 9.57982 100.875 10.1554 100.65 10.6898C100.436 11.1673 100.118 11.5904 99.7179 11.9277C99.3085 12.2692 98.8359 12.5268 98.327 12.6857C97.7434 12.8636 97.1359 12.9504 96.5259 12.943C95.6366 12.9527 94.7501 12.8428 93.8902 12.6161C93.155 12.4417 92.4447 12.1753 91.7761 11.8234C91.5953 11.726 91.5049 11.6356 91.5049 11.5521C91.5149 11.4198 91.5405 11.289 91.5814 11.1627L92.1934 9.14597C92.1934 9.0208 92.2907 8.9443 92.3811 8.93039C92.4881 8.91629 92.5967 8.94096 92.6871 8.99993C92.9577 9.1434 93.2363 9.2711 93.5216 9.38242C93.8276 9.50759 94.1405 9.62582 94.4604 9.73708C94.765 9.84712 95.0763 9.93771 95.3923 10.0083C95.655 10.0671 95.9229 10.0997 96.1921 10.1057C96.5043 10.1244 96.8141 10.0414 97.0752 9.86922C97.1785 9.78613 97.2606 9.67983 97.315 9.55899C97.3694 9.43814 97.3945 9.30616 97.3882 9.17379C97.3893 9.02985 97.3502 8.88845 97.2753 8.76556C97.2003 8.64268 97.0925 8.5432 96.964 8.47836C96.4901 8.24289 96.0024 8.03621 95.5036 7.85944C94.8082 7.58127 94.2657 7.33091 93.8485 7.12229C93.465 6.93156 93.1131 6.68293 92.8053 6.38514C92.535 6.10593 92.3203 5.77789 92.1725 5.41849C91.9964 4.97642 91.9113 4.50338 91.9221 4.02764C91.9117 3.46419 92.0356 2.90635 92.2838 2.40035C92.513 1.92097 92.8455 1.49825 93.2574 1.16249C93.6896 0.766614 94.1985 0.46365 94.7525 0.272348C95.365 0.0835652 96.0033 -0.00795299 96.6441 0.00113204C97.3925 -0.0113809 98.1391 0.0798925 98.8625 0.272348C99.431 0.437713 99.9774 0.671216 100.49 0.967773C100.622 1.05122 100.684 1.12077 100.684 1.19031C100.677 1.29079 100.654 1.38943 100.615 1.48239L99.8569 3.36699C99.8013 3.49912 99.7526 3.57562 99.697 3.58953C99.5992 3.60301 99.4996 3.58601 99.4119 3.54085C98.9877 3.36004 98.5495 3.19313 98.0906 3.04014C97.6885 2.89529 97.266 2.81547 96.8388 2.8037C96.5025 2.79057 96.1688 2.86739 95.8722 3.02623C95.7498 3.09487 95.6491 3.19639 95.5815 3.3193C95.5139 3.4422 95.4821 3.58159 95.4897 3.72166C95.4796 3.86211 95.5103 4.00249 95.5782 4.12587C95.646 4.24926 95.7481 4.35039 95.8722 4.41708C96.2739 4.62371 96.6872 4.80714 97.11 4.96647C97.9237 5.29332 98.5634 5.57844 99.0224 5.81489C99.4598 6.03734 99.857 6.33113 100.198 6.68417C100.755 7.32898 101.043 8.16269 101.004 9.01384" fill="#3D933C"/>
<path d="M37.5329 0.696552C37.2899 0.447541 36.9623 0.298663 36.6149 0.279297H35.8221C35.231 0.279297 35.4397 0.75914 35.4953 0.849546L37.8667 6.41295H43.4301L37.5329 0.696552Z" fill="#72E8B2"/>
<path d="M35.9753 12.5604L43.4233 6.42676H37.8599L34.1255 11.8998V11.9415C34.0073 12.1432 33.7082 12.7969 34.6262 12.8386H35.2451C35.5276 12.8176 35.7969 12.7108 36.017 12.5326" fill="#4BC999"/>
<path d="M102.208 12.1713C102.208 12.0668 102.227 11.9632 102.263 11.8653C102.299 11.7723 102.356 11.6889 102.43 11.6219C102.504 11.5553 102.589 11.5012 102.68 11.462C102.787 11.421 102.9 11.4021 103.014 11.4063C103.128 11.4027 103.242 11.4216 103.348 11.462C103.443 11.4996 103.53 11.5537 103.605 11.6219C103.675 11.6926 103.731 11.775 103.772 11.8653C103.809 11.9632 103.828 12.0668 103.828 12.1713C103.828 12.2736 103.809 12.375 103.772 12.4703C103.733 12.5616 103.676 12.6443 103.605 12.7137C103.532 12.7843 103.444 12.8388 103.348 12.8737C103.241 12.9108 103.128 12.9296 103.014 12.9293C102.901 12.9301 102.788 12.9113 102.68 12.8737C102.587 12.8371 102.502 12.7828 102.43 12.7137C102.355 12.648 102.297 12.5643 102.263 12.4703C102.226 12.375 102.207 12.2736 102.208 12.1713Z" fill="#4BC999"/>
<path d="M106.408 11.1835L107.402 7.57422H108.904L107.096 12.9359H105.726L103.918 7.57422H105.413L106.408 11.1835Z" fill="#4BC999"/>
<path d="M110.851 7.57433L110.893 8.19326C111.082 7.96487 111.32 7.78186 111.589 7.65778C111.863 7.53267 112.163 7.47088 112.465 7.47697C112.701 7.47307 112.936 7.50832 113.16 7.58129C113.366 7.64924 113.55 7.769 113.696 7.929C113.858 8.11124 113.976 8.32751 114.043 8.56184C114.131 8.87628 114.171 9.20215 114.162 9.52848V12.9361H112.729V9.51457C112.735 9.371 112.717 9.22743 112.673 9.09036C112.643 8.98653 112.586 8.8928 112.507 8.81914C112.431 8.75259 112.34 8.70493 112.242 8.68006C112.122 8.65047 111.998 8.63644 111.874 8.63833C111.69 8.63149 111.508 8.67603 111.348 8.76695C111.189 8.85786 111.058 8.99154 110.97 9.15295V12.9361H109.537V7.57433H110.851Z" fill="#4BC999"/>
</svg>
